<svg height="500pt" preserveAspectRatio="xMidYMid meet" viewBox="0 0 500 500" width="500pt" xmlns="http://www.w3.org/2000/svg"><g transform="matrix(.1 0 0 -.1 0 500)"><path d="m2325 4425c-465-86-836-402-993-847-47-131-63-233-72-453-10-226-26-305-89-441-86-183-192-300-389-428-153-99-229-173-274-264-29-58-33-76-33-147 0-70 4-89 32-148 145-306 778-536 1643-597 187-13 616-13 795 0 407 30 773 98 1060 197 219 76 432 201 513 302 183 227 107 461-214 658-227 140-379 337-444 578-16 60-24 127-30 270-4 105-11 208-15 230-33 204-99 377-206 540-66 101-241 276-339 342-139 93-262 148-425 189-128 33-391 42-520 19zm400-197c220-33 440-151 603-322 206-217 301-471 302-802 0-203 42-380 128-549 97-188 225-325 431-460 137-90 192-140 216-197 20-49 19-71-4-117-90-175-467-338-986-426-991-168-2223-18-2639 320-169 139-135 262 115 416 293 181 476 438 545 768 8 42 19 166 24 276 10 220 26 306 86 448 94 224 293 436 509 544 210 106 426 138 670 101z"/><path d="m1891 876c-28-16-50-52-51-84 0-32 49-125 106-201 89-119 228-214 384-263 64-20 96-23 220-23 136 0 150 2 233 32 48 17 113 46 144 64 157 93 333 323 316 412-3 15-19 39-36 53-25 21-38 25-69 21-50-7-64-19-99-89-65-128-205-240-353-283-81-24-248-17-331 13-130 47-244 150-314 283-40 74-92 97-150 65z"/></g></svg>