<?xml version="1.0" encoding="utf-8"?>
<!-- Generator: Adobe Illustrator 24.0.1, SVG Export Plug-In . SVG Version: 6.00 Build 0)  -->
<svg version="1.1" id="Layer_1" xmlns="http://www.w3.org/2000/svg" xmlns:xlink="http://www.w3.org/1999/xlink" x="0px" y="0px"
	 viewBox="0 0 600 600" style="enable-background:new 0 0 600 600;" xml:space="preserve">
<path d="M530.1,352.8c0,3.3,0,5.6,0,7.9c0,54.9,0,109.8,0,164.7c0,39.5-26.9,66.4-66.4,66.5c-29,0-58,0-86.9,0
	c-14,0-20.5-6.6-20.5-20.8c0-43.7,0-87.3,0-131c0-20.6-11.5-32.1-32.2-32.2c-16.4,0-32.8-0.1-49.2,0c-19.2,0.1-31.1,11.8-31.1,31
	c-0.1,43.9,0,87.7,0,131.6c0,15-6.3,21.3-21.1,21.3c-29,0-58,0-86.9,0c-38.7,0-65.7-27.1-65.8-65.9c-0.1-55.1,0-110.2,0-165.3
	c0-2.3,0-4.6,0-7.8c-2.6,0-5,0-7.4,0c-23.5-0.1-43.2-12.5-51.3-33.4c-8.7-22.3-4.3-42.5,12.5-59.4c36-36.3,72.2-72.3,108.3-108.4
	c42.3-42.3,85.3-84,126.7-127.3c21.4-22.3,60.3-22.3,82.1-0.1c77.7,79,156.1,157.2,234.9,235.1c24.4,24.1,21.2,69-9.5,86.1
	c-8.1,4.6-16.7,7.3-26.1,7.4C537.2,352.8,534,352.8,530.1,352.8z M390.7,557.5c24.8,0,48.6,0,72.4,0c21.5,0,32.7-11.2,32.7-32.8
	c0-62.2,0-124.3,0-186.5c0-12.9,6.9-19.7,19.8-19.8c8,0,16,0.1,24-0.1c8.7-0.2,15.6-5.7,18.1-14c2.8-9.6-1.8-16.4-8.2-22.8
	c-77.6-77.5-155.1-155-232.6-232.5c-11.9-11.9-21.9-11.8-33.9,0.2C214,118.3,145,187.3,76,256.3c-9.4,9.4-18.9,18.8-28.3,28.3
	c-6.2,6.3-8.1,13.9-4.5,22c3.5,7.9,9.9,11.8,18.6,11.8c6.5,0,13,0,19.4,0c17.3,0,23.1,5.7,23.1,22.8c0,61.2,0.4,122.4-0.2,183.6
	c-0.2,20.8,14.9,33.4,32.6,32.8c22.1-0.8,44.2-0.2,66.3-0.2c2,0,4,0,6.5,0c0-3.1,0-5.3,0-7.6c0-38.7-0.3-77.4,0.3-116.1
	c0.5-30.5,24.9-57.2,55.3-59.3c23.3-1.6,46.8-0.3,70.3-0.3c1.9,0,3.8,0.5,5.6,0.9c29.7,6.8,49.5,31.2,49.7,62.2
	c0.2,37.6,0.1,75.1,0.1,112.7C390.7,552.4,390.7,554.6,390.7,557.5z"/>
</svg>
