<?xml version="1.0" encoding="utf-8"?>
<!-- Generator: Adobe Illustrator 24.0.1, SVG Export Plug-In . SVG Version: 6.00 Build 0)  -->
<svg version="1.1" id="Layer_1" xmlns="http://www.w3.org/2000/svg" xmlns:xlink="http://www.w3.org/1999/xlink" x="0px" y="0px"
	 viewBox="0 0 600 600" style="enable-background:new 0 0 600 600;" xml:space="preserve">
<path d="M310.5,9.6c5.8,0.7,11.5,1.3,17.3,2.2C405.4,24.2,460.5,66.7,492.3,138c20.3,45.5,21.4,93,7.8,140.9
	c-11.8,41.6-30.4,80.2-51.8,117.5c-37.6,65.4-82.7,125.5-131.8,182.5c-11.6,13.5-22.9,13.5-34.4,0
	C226.3,514,175.5,445.6,135.6,369.6c-18.2-34.7-34.3-70.6-41.5-109.4c-14.2-76.3,7.5-141.6,63.6-195c33.1-31.5,73.3-48.8,118.6-54.4
	c3.9-0.5,7.8-0.9,11.7-1.3C295.5,9.6,303,9.6,310.5,9.6z M298.6,325c57.1,1,105-46,106-104.2c1.1-58-45.7-105.9-104.4-107
	c-57.3-1-105.1,45.7-106.3,103.9C192.6,276,239.4,323.9,298.6,325z"/>
</svg>
